G04 EAGLE Gerber RS-274X export*
G75*
%MOMM*%
%FSLAX34Y34*%
%LPD*%
%INSolderpaste Top*%
%IPPOS*%
%AMOC8*
5,1,8,0,0,1.08239X$1,22.5*%
G01*
%ADD10R,0.558800X1.270000*%
%ADD11R,1.270000X0.558800*%
%ADD12R,2.400000X1.800000*%
%ADD13R,1.000000X1.100000*%
%ADD14R,2.500000X3.500000*%
%ADD15R,1.200000X1.200000*%
%ADD16R,1.100000X1.000000*%
%ADD17R,1.300000X0.850000*%
%ADD18R,0.914400X0.406400*%
%ADD19R,1.800000X2.000000*%
%ADD20R,2.000000X2.500000*%
%ADD21R,2.000000X3.300000*%
%ADD22R,0.500000X3.100000*%
%ADD23R,0.800000X0.800000*%
%ADD24R,1.400000X1.000000*%
%ADD25R,0.830000X0.630000*%
%ADD26R,0.900000X0.800000*%
%ADD27R,0.800000X1.000000*%


D10*
X424900Y193074D03*
X432900Y193074D03*
X440900Y193074D03*
X448900Y193074D03*
X456900Y193074D03*
X464900Y193074D03*
X472900Y193074D03*
X480900Y193074D03*
D11*
X495826Y208000D03*
X495826Y216000D03*
X495826Y224000D03*
X495826Y232000D03*
X495826Y240000D03*
X495826Y248000D03*
X495826Y256000D03*
X495826Y264000D03*
D10*
X480900Y278926D03*
X472900Y278926D03*
X464900Y278926D03*
X456900Y278926D03*
X448900Y278926D03*
X440900Y278926D03*
X432900Y278926D03*
X424900Y278926D03*
D11*
X409974Y264000D03*
X409974Y256000D03*
X409974Y248000D03*
X409974Y240000D03*
X409974Y232000D03*
X409974Y224000D03*
X409974Y216000D03*
X409974Y208000D03*
D12*
X185000Y316750D03*
X185000Y357250D03*
D13*
X510000Y199500D03*
X510000Y182500D03*
X531000Y182500D03*
X531000Y199500D03*
X355500Y391000D03*
X372500Y391000D03*
X200000Y268500D03*
X200000Y251500D03*
X325000Y278500D03*
X325000Y261500D03*
D14*
X345000Y217500D03*
X345000Y152500D03*
X640000Y222500D03*
X640000Y157500D03*
D15*
X158000Y371500D03*
X158000Y350500D03*
X355000Y462500D03*
X355000Y441500D03*
D16*
X158000Y337500D03*
X158000Y320500D03*
X355000Y425500D03*
X355000Y408500D03*
X620000Y346500D03*
X620000Y363500D03*
X510000Y324500D03*
X510000Y341500D03*
X724500Y345000D03*
X741500Y345000D03*
D13*
X734000Y310500D03*
X734000Y327500D03*
D17*
X532488Y365254D03*
X532488Y377700D03*
X597512Y377700D03*
X597512Y352300D03*
X532488Y352300D03*
X597512Y314746D03*
X597512Y302300D03*
X532488Y302300D03*
X532488Y327700D03*
X597512Y327700D03*
D16*
X620000Y311500D03*
X620000Y328500D03*
D18*
X702178Y307775D03*
X702178Y314125D03*
X702178Y320475D03*
X702178Y326825D03*
X702178Y333175D03*
X702178Y339525D03*
X702178Y345875D03*
X702178Y352225D03*
X647822Y352225D03*
X647822Y345875D03*
X647822Y339525D03*
X647822Y333175D03*
X647822Y326825D03*
X647822Y320475D03*
X647822Y314125D03*
X647822Y307775D03*
D13*
X595000Y406500D03*
X595000Y423500D03*
X669500Y388000D03*
X686500Y388000D03*
X678500Y368000D03*
X661500Y368000D03*
X740000Y396500D03*
X740000Y413500D03*
D19*
X709000Y373000D03*
X737000Y373000D03*
D16*
X510000Y356500D03*
X510000Y373500D03*
D20*
X625500Y475000D03*
X714500Y475000D03*
D21*
X625500Y416000D03*
X714500Y416000D03*
D22*
X686000Y415000D03*
X678000Y415000D03*
X670000Y415000D03*
X662000Y415000D03*
X654000Y415000D03*
D23*
X436500Y331000D03*
X421500Y331000D03*
X452500Y331000D03*
X467500Y331000D03*
D13*
X407500Y331000D03*
X390500Y331000D03*
D16*
X489000Y329500D03*
X489000Y312500D03*
D13*
X498500Y395000D03*
X481500Y395000D03*
X454500Y395000D03*
X437500Y395000D03*
X419500Y395000D03*
X402500Y395000D03*
D16*
X111500Y285000D03*
X128500Y285000D03*
X111500Y335000D03*
X128500Y335000D03*
X111500Y385000D03*
X128500Y385000D03*
D13*
X111500Y360000D03*
X128500Y360000D03*
X111500Y310000D03*
X128500Y310000D03*
X111500Y260000D03*
X128500Y260000D03*
D16*
X443500Y302000D03*
X426500Y302000D03*
D13*
X459000Y172500D03*
X459000Y155500D03*
D16*
X816000Y331500D03*
X816000Y348500D03*
D13*
X795000Y331500D03*
X795000Y348500D03*
D16*
X795000Y316500D03*
X795000Y299500D03*
D13*
X873500Y130000D03*
X856500Y130000D03*
X873500Y214000D03*
X856500Y214000D03*
X873500Y319000D03*
X856500Y319000D03*
D16*
X856500Y340000D03*
X873500Y340000D03*
X856500Y235000D03*
X873500Y235000D03*
X856500Y151000D03*
X873500Y151000D03*
D13*
X873500Y193000D03*
X856500Y193000D03*
X873500Y277000D03*
X856500Y277000D03*
X873500Y298000D03*
X856500Y298000D03*
D23*
X890000Y343500D03*
X890000Y358500D03*
D13*
X873500Y361000D03*
X856500Y361000D03*
X873500Y256000D03*
X856500Y256000D03*
X873500Y172000D03*
X856500Y172000D03*
D23*
X890000Y242500D03*
X890000Y257500D03*
X890000Y142500D03*
X890000Y157500D03*
D13*
X278500Y113000D03*
X295500Y113000D03*
X485500Y113000D03*
X502500Y113000D03*
X696500Y113000D03*
X713500Y113000D03*
D23*
X323500Y113000D03*
X308500Y113000D03*
X532500Y113000D03*
X517500Y113000D03*
X747500Y113000D03*
X732500Y113000D03*
D16*
X170000Y223500D03*
X170000Y206500D03*
D24*
X239000Y215000D03*
X261000Y224500D03*
X261000Y205500D03*
D16*
X285000Y223500D03*
X285000Y206500D03*
X215000Y206500D03*
X215000Y223500D03*
D25*
X192000Y226500D03*
X192000Y203500D03*
D26*
X150000Y205500D03*
X150000Y224500D03*
X129000Y215000D03*
D27*
X110000Y225000D03*
X110000Y205000D03*
D13*
X253500Y164000D03*
X236500Y164000D03*
X253500Y122000D03*
X236500Y122000D03*
D16*
X516500Y395000D03*
X533500Y395000D03*
D23*
X818500Y365000D03*
X833500Y365000D03*
D16*
X837000Y331500D03*
X837000Y348500D03*
X110000Y171500D03*
X110000Y188500D03*
D23*
X110000Y142500D03*
X110000Y157500D03*
X122500Y115000D03*
X137500Y115000D03*
X172500Y115000D03*
X187500Y115000D03*
D13*
X253500Y185000D03*
X236500Y185000D03*
X253500Y143000D03*
X236500Y143000D03*
D16*
X218500Y164000D03*
X201500Y164000D03*
X218500Y122000D03*
X201500Y122000D03*
X835000Y128500D03*
X835000Y111500D03*
M02*
