G04 EAGLE Gerber RS-274X export*
G75*
%MOMM*%
%FSLAX34Y34*%
%LPD*%
%INSoldermask Top*%
%IPPOS*%
%AMOC8*
5,1,8,0,0,1.08239X$1,22.5*%
G01*
%ADD10C,1.879600*%
%ADD11C,3.505200*%
%ADD12C,2.184400*%
%ADD13R,0.762000X1.473200*%
%ADD14R,1.473200X0.762000*%
%ADD15C,6.045200*%
%ADD16R,2.603200X2.003200*%
%ADD17C,1.524000*%
%ADD18R,1.203200X1.303200*%
%ADD19R,2.703200X3.703200*%
%ADD20R,1.403200X1.403200*%
%ADD21R,1.303200X1.203200*%
%ADD22C,1.727200*%
%ADD23R,1.503200X1.053200*%
%ADD24R,1.117600X0.609600*%
%ADD25R,2.003200X2.203200*%
%ADD26P,1.869504X8X22.500000*%
%ADD27R,2.203200X2.703200*%
%ADD28R,2.203200X3.503200*%
%ADD29R,0.703200X3.303200*%
%ADD30C,1.103200*%
%ADD31R,1.003200X1.003200*%
%ADD32R,1.603200X1.203200*%
%ADD33R,1.033200X0.833200*%
%ADD34R,1.103200X1.003200*%
%ADD35R,1.003200X1.203200*%

G36*
X325035Y318505D02*
X325035Y318505D01*
X325071Y318502D01*
X325207Y318525D01*
X325343Y318541D01*
X325377Y318553D01*
X325412Y318558D01*
X325539Y318611D01*
X325669Y318658D01*
X325698Y318678D01*
X325731Y318691D01*
X325843Y318772D01*
X325958Y318847D01*
X325983Y318873D01*
X326011Y318893D01*
X326102Y318998D01*
X326197Y319097D01*
X326215Y319128D01*
X326238Y319154D01*
X326302Y319277D01*
X326372Y319395D01*
X326382Y319429D01*
X326399Y319461D01*
X326433Y319594D01*
X326474Y319726D01*
X326476Y319761D01*
X326485Y319795D01*
X326499Y320000D01*
X326499Y475000D01*
X326495Y475035D01*
X326498Y475071D01*
X326475Y475207D01*
X326459Y475343D01*
X326447Y475377D01*
X326442Y475412D01*
X326389Y475539D01*
X326342Y475669D01*
X326323Y475698D01*
X326309Y475731D01*
X326228Y475843D01*
X326153Y475958D01*
X326127Y475983D01*
X326107Y476011D01*
X326003Y476102D01*
X325903Y476197D01*
X325872Y476215D01*
X325846Y476238D01*
X325723Y476302D01*
X325605Y476372D01*
X325571Y476382D01*
X325539Y476399D01*
X325406Y476433D01*
X325274Y476474D01*
X325239Y476476D01*
X325205Y476485D01*
X325000Y476499D01*
X223000Y476499D01*
X222965Y476495D01*
X222929Y476498D01*
X222793Y476475D01*
X222657Y476459D01*
X222623Y476447D01*
X222588Y476442D01*
X222461Y476389D01*
X222331Y476342D01*
X222302Y476323D01*
X222269Y476309D01*
X222157Y476228D01*
X222042Y476153D01*
X222017Y476127D01*
X221989Y476107D01*
X221898Y476003D01*
X221803Y475903D01*
X221785Y475872D01*
X221762Y475846D01*
X221698Y475723D01*
X221628Y475605D01*
X221618Y475571D01*
X221601Y475539D01*
X221567Y475406D01*
X221526Y475274D01*
X221524Y475239D01*
X221515Y475205D01*
X221501Y475000D01*
X221501Y320000D01*
X221505Y319965D01*
X221502Y319929D01*
X221525Y319793D01*
X221541Y319657D01*
X221553Y319623D01*
X221558Y319588D01*
X221611Y319461D01*
X221658Y319331D01*
X221678Y319302D01*
X221691Y319269D01*
X221772Y319157D01*
X221847Y319042D01*
X221873Y319017D01*
X221893Y318989D01*
X221998Y318898D01*
X222097Y318803D01*
X222128Y318785D01*
X222154Y318762D01*
X222277Y318698D01*
X222395Y318628D01*
X222429Y318618D01*
X222461Y318601D01*
X222594Y318567D01*
X222726Y318526D01*
X222761Y318524D01*
X222795Y318515D01*
X223000Y318501D01*
X325000Y318501D01*
X325035Y318505D01*
G37*
D10*
X248600Y264918D02*
X248600Y281682D01*
X274000Y281682D02*
X274000Y264918D01*
X299400Y264918D02*
X299400Y281682D01*
D11*
X274000Y423160D03*
D12*
X181846Y426694D02*
X181846Y446506D01*
X131554Y446506D02*
X131554Y426694D01*
D13*
X424900Y193074D03*
X432900Y193074D03*
X440900Y193074D03*
X448900Y193074D03*
X456900Y193074D03*
X464900Y193074D03*
X472900Y193074D03*
X480900Y193074D03*
D14*
X495826Y208000D03*
X495826Y216000D03*
X495826Y224000D03*
X495826Y232000D03*
X495826Y240000D03*
X495826Y248000D03*
X495826Y256000D03*
X495826Y264000D03*
D13*
X480900Y278926D03*
X472900Y278926D03*
X464900Y278926D03*
X456900Y278926D03*
X448900Y278926D03*
X440900Y278926D03*
X432900Y278926D03*
X424900Y278926D03*
D14*
X409974Y264000D03*
X409974Y256000D03*
X409974Y248000D03*
X409974Y240000D03*
X409974Y232000D03*
X409974Y224000D03*
X409974Y216000D03*
X409974Y208000D03*
D15*
X955000Y45000D03*
X955000Y455000D03*
X45000Y45000D03*
X45000Y455000D03*
D16*
X185000Y316750D03*
X185000Y357250D03*
D17*
X546130Y150000D03*
X497870Y150000D03*
D18*
X510000Y199500D03*
X510000Y182500D03*
X531000Y182500D03*
X531000Y199500D03*
X355500Y391000D03*
X372500Y391000D03*
X200000Y268500D03*
X200000Y251500D03*
X325000Y278500D03*
X325000Y261500D03*
D19*
X345000Y217500D03*
X345000Y152500D03*
X640000Y222500D03*
X640000Y157500D03*
D20*
X158000Y371500D03*
X158000Y350500D03*
X355000Y462500D03*
X355000Y441500D03*
D21*
X158000Y337500D03*
X158000Y320500D03*
X355000Y425500D03*
X355000Y408500D03*
D22*
X439892Y417394D02*
X455132Y417394D01*
X455132Y462606D02*
X439892Y462606D01*
X390108Y417394D02*
X374868Y417394D01*
X374868Y462606D02*
X390108Y462606D01*
D21*
X620000Y346500D03*
X620000Y363500D03*
X510000Y324500D03*
X510000Y341500D03*
X724500Y345000D03*
X741500Y345000D03*
D18*
X734000Y310500D03*
X734000Y327500D03*
D23*
X532488Y365254D03*
X532488Y377700D03*
X597512Y377700D03*
X597512Y352300D03*
X532488Y352300D03*
X597512Y314746D03*
X597512Y302300D03*
X532488Y302300D03*
X532488Y327700D03*
X597512Y327700D03*
D21*
X620000Y311500D03*
X620000Y328500D03*
D24*
X702178Y307775D03*
X702178Y314125D03*
X702178Y320475D03*
X702178Y326825D03*
X702178Y333175D03*
X702178Y339525D03*
X702178Y345875D03*
X702178Y352225D03*
X647822Y352225D03*
X647822Y345875D03*
X647822Y339525D03*
X647822Y333175D03*
X647822Y326825D03*
X647822Y320475D03*
X647822Y314125D03*
X647822Y307775D03*
D18*
X595000Y406500D03*
X595000Y423500D03*
X669500Y388000D03*
X686500Y388000D03*
X678500Y368000D03*
X661500Y368000D03*
X740000Y396500D03*
X740000Y413500D03*
D25*
X709000Y373000D03*
X737000Y373000D03*
D21*
X510000Y356500D03*
X510000Y373500D03*
D26*
X484600Y427300D03*
X484600Y452700D03*
X510000Y427300D03*
X510000Y452700D03*
X535400Y427300D03*
X535400Y452700D03*
D27*
X625500Y475000D03*
X714500Y475000D03*
D28*
X625500Y416000D03*
X714500Y416000D03*
D29*
X686000Y415000D03*
X678000Y415000D03*
X670000Y415000D03*
X662000Y415000D03*
X654000Y415000D03*
D30*
X692000Y445000D03*
X648000Y445000D03*
D22*
X483100Y362620D02*
X483100Y347380D01*
X457700Y347380D02*
X457700Y362620D01*
X432300Y362620D02*
X432300Y347380D01*
X406900Y347380D02*
X406900Y362620D01*
D31*
X436500Y331000D03*
X421500Y331000D03*
X452500Y331000D03*
X467500Y331000D03*
D18*
X407500Y331000D03*
X390500Y331000D03*
D21*
X489000Y329500D03*
X489000Y312500D03*
D18*
X498500Y395000D03*
X481500Y395000D03*
X454500Y395000D03*
X437500Y395000D03*
X419500Y395000D03*
X402500Y395000D03*
D12*
X289816Y69906D02*
X289816Y50094D01*
X340108Y50094D02*
X340108Y69906D01*
X389892Y69906D02*
X389892Y50094D01*
X440184Y50094D02*
X440184Y69906D01*
X501816Y69906D02*
X501816Y50094D01*
X552108Y50094D02*
X552108Y69906D01*
X601892Y69906D02*
X601892Y50094D01*
X652184Y50094D02*
X652184Y69906D01*
X712816Y69906D02*
X712816Y50094D01*
X763108Y50094D02*
X763108Y69906D01*
X812892Y69906D02*
X812892Y50094D01*
X863184Y50094D02*
X863184Y69906D01*
X930094Y124778D02*
X949906Y124778D01*
X949906Y174816D02*
X930094Y174816D01*
X930094Y224854D02*
X949906Y224854D01*
X949906Y275146D02*
X930094Y275146D01*
X930094Y325184D02*
X949906Y325184D01*
X949906Y375222D02*
X930094Y375222D01*
D21*
X111500Y285000D03*
X128500Y285000D03*
X111500Y335000D03*
X128500Y335000D03*
X111500Y385000D03*
X128500Y385000D03*
D18*
X111500Y360000D03*
X128500Y360000D03*
X111500Y310000D03*
X128500Y310000D03*
X111500Y260000D03*
X128500Y260000D03*
D12*
X861146Y426094D02*
X861146Y445906D01*
X810854Y445906D02*
X810854Y426094D01*
X69906Y375222D02*
X50094Y375222D01*
X50094Y325184D02*
X69906Y325184D01*
X69906Y275146D02*
X50094Y275146D01*
X50094Y224854D02*
X69906Y224854D01*
X69906Y174816D02*
X50094Y174816D01*
X50094Y124778D02*
X69906Y124778D01*
D21*
X443500Y302000D03*
X426500Y302000D03*
D18*
X459000Y172500D03*
X459000Y155500D03*
D21*
X816000Y331500D03*
X816000Y348500D03*
D18*
X795000Y331500D03*
X795000Y348500D03*
D21*
X795000Y316500D03*
X795000Y299500D03*
D18*
X873500Y130000D03*
X856500Y130000D03*
X873500Y214000D03*
X856500Y214000D03*
X873500Y319000D03*
X856500Y319000D03*
D21*
X856500Y340000D03*
X873500Y340000D03*
X856500Y235000D03*
X873500Y235000D03*
X856500Y151000D03*
X873500Y151000D03*
D18*
X873500Y193000D03*
X856500Y193000D03*
X873500Y277000D03*
X856500Y277000D03*
X873500Y298000D03*
X856500Y298000D03*
D31*
X890000Y343500D03*
X890000Y358500D03*
D18*
X873500Y361000D03*
X856500Y361000D03*
X873500Y256000D03*
X856500Y256000D03*
X873500Y172000D03*
X856500Y172000D03*
D31*
X890000Y242500D03*
X890000Y257500D03*
X890000Y142500D03*
X890000Y157500D03*
D18*
X278500Y113000D03*
X295500Y113000D03*
X485500Y113000D03*
X502500Y113000D03*
X696500Y113000D03*
X713500Y113000D03*
D31*
X323500Y113000D03*
X308500Y113000D03*
X532500Y113000D03*
X517500Y113000D03*
X747500Y113000D03*
X732500Y113000D03*
D21*
X170000Y223500D03*
X170000Y206500D03*
D32*
X239000Y215000D03*
X261000Y224500D03*
X261000Y205500D03*
D21*
X285000Y223500D03*
X285000Y206500D03*
X215000Y206500D03*
X215000Y223500D03*
D33*
X192000Y226500D03*
X192000Y203500D03*
D34*
X150000Y205500D03*
X150000Y224500D03*
X129000Y215000D03*
D35*
X110000Y225000D03*
X110000Y205000D03*
D18*
X253500Y164000D03*
X236500Y164000D03*
X253500Y122000D03*
X236500Y122000D03*
D21*
X516500Y395000D03*
X533500Y395000D03*
D31*
X818500Y365000D03*
X833500Y365000D03*
D21*
X837000Y331500D03*
X837000Y348500D03*
X110000Y171500D03*
X110000Y188500D03*
D31*
X110000Y142500D03*
X110000Y157500D03*
X122500Y115000D03*
X137500Y115000D03*
X172500Y115000D03*
X187500Y115000D03*
D18*
X253500Y185000D03*
X236500Y185000D03*
X253500Y143000D03*
X236500Y143000D03*
D12*
X129962Y69906D02*
X129962Y50094D01*
X180000Y50094D02*
X180000Y69906D01*
X230038Y69906D02*
X230038Y50094D01*
D21*
X218500Y164000D03*
X201500Y164000D03*
X218500Y122000D03*
X201500Y122000D03*
X835000Y128500D03*
X835000Y111500D03*
M02*
