M48
;GenerationSoftware,Autodesk,EAGLE,9.4.2*%
;CreationDate,2020-09-04T12:11:28Z*%
FMAT,2
ICI,OFF
METRIC,TZ,000.000
T8C0.500
T7C0.813
T6C0.900
T5C1.016
T4C1.118
T3C1.321
T2C3.000
T1C3.302
%
G90
M71
T1
X27400Y42316
T2
X4500Y45500
X4500Y4500
X95500Y45500
X95500Y4500
T3
X50182Y6000
X44018Y6000
X65218Y6000
X38989Y6000
X34011Y6000
X28982Y6000
X13155Y43660
X18185Y43660
X94000Y27515
X60189Y6000
X55211Y6000
X23004Y6000
X18000Y6000
X12996Y6000
X6000Y12478
X6000Y17482
X6000Y22485
X6000Y27515
X6000Y32518
X6000Y37522
X81085Y43600
X86115Y43600
X94000Y37522
X94000Y32518
X94000Y22485
X94000Y17482
X94000Y12478
X86318Y6000
X81289Y6000
X76311Y6000
X71282Y6000
T4
X24860Y27330
X29940Y27330
X27400Y27330
T5
X40690Y35500
X38249Y41739
X44751Y41739
X44751Y46261
X38249Y46261
X48460Y42730
X48460Y45270
X51000Y42730
X51000Y45270
X53540Y42730
X53540Y45270
X48310Y35500
X45770Y35500
X43230Y35500
T6
X69200Y44500
X64800Y44500
T7
X54613Y15000
X49787Y15000
T8
X16500Y28500
X39500Y28200
X14500Y28500
X39500Y27050
X14500Y26500
X39500Y25900
X39500Y24700
X30300Y21800
X43700Y23900
X51600Y26500
X53200Y31400
X48000Y21300
X51500Y21600
X38500Y39800
X49200Y27500
X42500Y23000
X72400Y35700
X63400Y33318
X71500Y31000
X64800Y36400
X71533Y32300
X63400Y31400
X67500Y34600
X64950Y39050
X74000Y42700
X68533Y31500
X88800Y19300
X88600Y28700
X83700Y31500
X59000Y22500
X45700Y30000
X9500Y26000
X9500Y31000
X9500Y36000
X21700Y25700
X34500Y25900
X47500Y24400
X58900Y9700
X66300Y17300
X61500Y17200
X43900Y25700
X39500Y29350
X56100Y28800
X27500Y14300
X46493Y22058
X48600Y29347
X39400Y37700
X49800Y28500
X38900Y38700
X27500Y18500
X48000Y23000
M30